<svg xmlns="http://www.w3.org/2000/svg" viewBox="0 0 150 150" width="100%" height="100%">
    <defs>
        <linearGradient id="bgGrad" x1="0%" y1="0%" x2="100%" y2="100%">
            <stop offset="0%" stop-color="#F8FAFC"/>
            <stop offset="100%" stop-color="#E2E8F0"/>
        </linearGradient>
        <linearGradient id="accentGrad" x1="0%" y1="0%" x2="100%" y2="100%">
            <stop offset="0%" stop-color="#00D2FF"/>
            <stop offset="100%" stop-color="#0072FF"/>
        </linearGradient>
    </defs>
    <rect width="150" height="150" rx="16" fill="url(#bgGrad)"/>
    <rect x="30" y="30" width="90" height="90" rx="12" fill="none" stroke="#94A3B8" stroke-width="2" stroke-dasharray="6 4"/>
    <path d="M 38 30 L 30 30 L 30 38" fill="none" stroke="url(#accentGrad)" stroke-width="3" stroke-linecap="round"/>
    <path d="M 112 30 L 120 30 L 120 38" fill="none" stroke="url(#accentGrad)" stroke-width="3" stroke-linecap="round"/>
    <path d="M 30 112 L 30 120 L 38 120" fill="none" stroke="url(#accentGrad)" stroke-width="3" stroke-linecap="round"/>
    <path d="M 120 112 L 120 120 L 112 120" fill="none" stroke="url(#accentGrad)" stroke-width="3" stroke-linecap="round"/>
    <g fill="#64748B">
        <path d="M48 95 l16-20 10 12 16-22 16 30 Z" opacity="0.7"/>
        <circle cx="58" cy="54" r="6" fill="#94A3B8"/>
    </g>
    <line x1="25" y1="125" x2="125" y2="25" stroke="#1E293B" stroke-width="3" stroke-linecap="round" opacity="0.15"/>
    <line x1="25" y1="125" x2="125" y2="25" stroke="url(#accentGrad)" stroke-width="3" stroke-linecap="round" stroke-dasharray="12 160"/>
</svg>
